<svg xmlns="http://www.w3.org/2000/svg" viewBox="0 0 400 400"><defs><style>.cls-1{fill:#f56c6c;}.cls-2{fill:#67c23a;}.cls-3{fill:#409eff;}.cls-4{fill:#f7ba2a;}</style></defs><title>资源 1</title><g id="图层_2" data-name="图层 2"><g id="图层_1-2" data-name="图层 1"><path class="cls-1" d="M174.8,0V50.93A151.53,151.53,0,0,0,50.93,174.8H0C11.4,83.76,83.75,11.4,174.8,0Z"/><path class="cls-2" d="M400,225.2c-11.4,91-83.75,163.4-174.8,174.8V349.07A151.53,151.53,0,0,0,349.07,225.2Z"/><path class="cls-3" d="M400,174.8H349.07A151.53,151.53,0,0,0,225.2,50.93V0C316.25,11.4,388.6,83.76,400,174.8Z"/><path class="cls-4" d="M174.8,349.07V400C83.75,388.6,11.4,316.24,0,225.2H50.93A151.53,151.53,0,0,0,174.8,349.07Z"/></g></g></svg>